<svg id="visual" viewBox="0 0 900 600" width="900" height="600" xmlns="http://www.w3.org/2000/svg" xmlns:xlink="http://www.w3.org/1999/xlink" version="1.1"><rect x="0" y="0" width="900" height="600" fill="#001220"></rect><defs><linearGradient id="grad1_0" x1="33.3%" y1="0%" x2="100%" y2="100%"><stop offset="20%" stop-color="#fbae3c" stop-opacity="1"></stop><stop offset="80%" stop-color="#fbae3c" stop-opacity="1"></stop></linearGradient></defs><defs><linearGradient id="grad1_1" x1="33.3%" y1="0%" x2="100%" y2="100%"><stop offset="20%" stop-color="#fbae3c" stop-opacity="1"></stop><stop offset="80%" stop-color="#f48350" stop-opacity="1"></stop></linearGradient></defs><defs><linearGradient id="grad1_2" x1="33.3%" y1="0%" x2="100%" y2="100%"><stop offset="20%" stop-color="#d96162" stop-opacity="1"></stop><stop offset="80%" stop-color="#f48350" stop-opacity="1"></stop></linearGradient></defs><defs><linearGradient id="grad1_3" x1="33.3%" y1="0%" x2="100%" y2="100%"><stop offset="20%" stop-color="#d96162" stop-opacity="1"></stop><stop offset="80%" stop-color="#af4b6d" stop-opacity="1"></stop></linearGradient></defs><defs><linearGradient id="grad1_4" x1="33.3%" y1="0%" x2="100%" y2="100%"><stop offset="20%" stop-color="#7c3e6b" stop-opacity="1"></stop><stop offset="80%" stop-color="#af4b6d" stop-opacity="1"></stop></linearGradient></defs><defs><linearGradient id="grad1_5" x1="33.3%" y1="0%" x2="100%" y2="100%"><stop offset="20%" stop-color="#7c3e6b" stop-opacity="1"></stop><stop offset="80%" stop-color="#49335c" stop-opacity="1"></stop></linearGradient></defs><defs><linearGradient id="grad1_6" x1="33.3%" y1="0%" x2="100%" y2="100%"><stop offset="20%" stop-color="#1d2540" stop-opacity="1"></stop><stop offset="80%" stop-color="#49335c" stop-opacity="1"></stop></linearGradient></defs><defs><linearGradient id="grad1_7" x1="33.3%" y1="0%" x2="100%" y2="100%"><stop offset="20%" stop-color="#1d2540" stop-opacity="1"></stop><stop offset="80%" stop-color="#001220" stop-opacity="1"></stop></linearGradient></defs><defs><linearGradient id="grad2_0" x1="0%" y1="0%" x2="66.7%" y2="100%"><stop offset="20%" stop-color="#fbae3c" stop-opacity="1"></stop><stop offset="80%" stop-color="#fbae3c" stop-opacity="1"></stop></linearGradient></defs><defs><linearGradient id="grad2_1" x1="0%" y1="0%" x2="66.7%" y2="100%"><stop offset="20%" stop-color="#f48350" stop-opacity="1"></stop><stop offset="80%" stop-color="#fbae3c" stop-opacity="1"></stop></linearGradient></defs><defs><linearGradient id="grad2_2" x1="0%" y1="0%" x2="66.7%" y2="100%"><stop offset="20%" stop-color="#f48350" stop-opacity="1"></stop><stop offset="80%" stop-color="#d96162" stop-opacity="1"></stop></linearGradient></defs><defs><linearGradient id="grad2_3" x1="0%" y1="0%" x2="66.7%" y2="100%"><stop offset="20%" stop-color="#af4b6d" stop-opacity="1"></stop><stop offset="80%" stop-color="#d96162" stop-opacity="1"></stop></linearGradient></defs><defs><linearGradient id="grad2_4" x1="0%" y1="0%" x2="66.7%" y2="100%"><stop offset="20%" stop-color="#af4b6d" stop-opacity="1"></stop><stop offset="80%" stop-color="#7c3e6b" stop-opacity="1"></stop></linearGradient></defs><defs><linearGradient id="grad2_5" x1="0%" y1="0%" x2="66.7%" y2="100%"><stop offset="20%" stop-color="#49335c" stop-opacity="1"></stop><stop offset="80%" stop-color="#7c3e6b" stop-opacity="1"></stop></linearGradient></defs><defs><linearGradient id="grad2_6" x1="0%" y1="0%" x2="66.7%" y2="100%"><stop offset="20%" stop-color="#49335c" stop-opacity="1"></stop><stop offset="80%" stop-color="#1d2540" stop-opacity="1"></stop></linearGradient></defs><defs><linearGradient id="grad2_7" x1="0%" y1="0%" x2="66.7%" y2="100%"><stop offset="20%" stop-color="#001220" stop-opacity="1"></stop><stop offset="80%" stop-color="#1d2540" stop-opacity="1"></stop></linearGradient></defs><g transform="translate(900, 0)"><path d="M0 351.5C-45.3 346.9 -90.7 342.2 -134.5 324.8C-178.4 307.4 -220.7 277.2 -237.6 237.6C-254.4 198 -245.8 149.1 -260.5 107.9C-275.3 66.8 -313.4 33.4 -351.5 0L0 0Z" fill="#0c1c30"></path><path d="M0 307.6C-39.7 303.5 -79.3 299.4 -117.7 284.2C-156.1 268.9 -193.1 242.5 -207.9 207.9C-222.6 173.3 -215.1 130.4 -228 94.4C-240.9 58.4 -274.2 29.2 -307.6 0L0 0Z" fill="#312c4f"></path><path d="M0 263.7C-34 260.2 -68 256.7 -100.9 243.6C-133.8 230.5 -165.6 207.9 -178.2 178.2C-190.8 148.5 -184.3 111.8 -195.4 80.9C-206.5 50.1 -235.1 25 -263.7 0L0 0Z" fill="#623965"></path><path d="M0 219.7C-28.3 216.8 -56.7 213.9 -84.1 203C-111.5 192.1 -138 173.2 -148.5 148.5C-159 123.8 -153.6 93.2 -162.8 67.4C-172 41.7 -195.9 20.9 -219.7 0L0 0Z" fill="#96446e"></path><path d="M0 175.8C-22.7 173.4 -45.3 171.1 -67.3 162.4C-89.2 153.7 -110.4 138.6 -118.8 118.8C-127.2 99 -122.9 74.5 -130.3 54C-137.6 33.4 -156.7 16.7 -175.8 0L0 0Z" fill="#c55469"></path><path d="M0 131.8C-17 130.1 -34 128.3 -50.4 121.8C-66.9 115.3 -82.8 103.9 -89.1 89.1C-95.4 74.3 -92.2 55.9 -97.7 40.5C-103.2 25 -117.5 12.5 -131.8 0L0 0Z" fill="#e9705a"></path><path d="M0 87.9C-11.3 86.7 -22.7 85.6 -33.6 81.2C-44.6 76.8 -55.2 69.3 -59.4 59.4C-63.6 49.5 -61.4 37.3 -65.1 27C-68.8 16.7 -78.4 8.3 -87.9 0L0 0Z" fill="#fa9845"></path><path d="M0 43.9C-5.7 43.4 -11.3 42.8 -16.8 40.6C-22.3 38.4 -27.6 34.6 -29.7 29.7C-31.8 24.8 -30.7 18.6 -32.6 13.5C-34.4 8.3 -39.2 4.2 -43.9 0L0 0Z" fill="#fbae3c"></path></g><g transform="translate(0, 600)"><path d="M0 -351.5C37.5 -328.2 75.1 -304.8 120.9 -291.9C166.8 -279.1 220.9 -276.9 248.6 -248.6C276.2 -220.3 277.4 -165.9 290.1 -120.2C302.8 -74.4 327.2 -37.2 351.5 0L0 0Z" fill="#0c1c30"></path><path d="M0 -307.6C32.8 -287.1 65.7 -266.7 105.8 -255.5C145.9 -244.2 193.3 -242.3 217.5 -217.5C241.7 -192.7 242.7 -145.2 253.8 -105.1C265 -65.1 286.3 -32.5 307.6 0L0 0Z" fill="#312c4f"></path><path d="M0 -263.7C28.2 -246.1 56.3 -228.6 90.7 -219C125.1 -209.3 165.7 -207.7 186.4 -186.4C207.2 -165.2 208 -124.5 217.6 -90.1C227.1 -55.8 245.4 -27.9 263.7 0L0 0Z" fill="#623965"></path><path d="M0 -219.7C23.5 -205.1 46.9 -190.5 75.6 -182.5C104.2 -174.5 138.1 -173 155.4 -155.4C172.6 -137.7 173.3 -103.7 181.3 -75.1C189.3 -46.5 204.5 -23.2 219.7 0L0 0Z" fill="#96446e"></path><path d="M0 -175.8C18.8 -164.1 37.5 -152.4 60.5 -146C83.4 -139.6 110.5 -138.4 124.3 -124.3C138.1 -110.1 138.7 -83 145 -60.1C151.4 -37.2 163.6 -18.6 175.8 0L0 0Z" fill="#c55469"></path><path d="M0 -131.8C14.1 -123.1 28.2 -114.3 45.3 -109.5C62.5 -104.7 82.8 -103.8 93.2 -93.2C103.6 -82.6 104 -62.2 108.8 -45.1C113.6 -27.9 122.7 -13.9 131.8 0L0 0Z" fill="#e9705a"></path><path d="M0 -87.9C9.4 -82 18.8 -76.2 30.2 -73C41.7 -69.8 55.2 -69.2 62.1 -62.1C69.1 -55.1 69.3 -41.5 72.5 -30C75.7 -18.6 81.8 -9.3 87.9 0L0 0Z" fill="#fa9845"></path><path d="M0 -43.9C4.7 -41 9.4 -38.1 15.1 -36.5C20.8 -34.9 27.6 -34.6 31.1 -31.1C34.5 -27.5 34.7 -20.7 36.3 -15C37.9 -9.3 40.9 -4.6 43.9 0L0 0Z" fill="#fbae3c"></path></g></svg>